<mxfile host="65bd71144e">
    <diagram id="xqe49uJMk2qLqhwoCR1s" name="Page-1">
        <mxGraphModel dx="1274" dy="931" grid="1" gridSize="10" guides="1" tooltips="1" connect="1" arrows="1" fold="1" page="1" pageScale="1" pageWidth="827" pageHeight="1169" math="0" shadow="0">
            <root>
                <mxCell id="0"/>
                <mxCell id="1" parent="0"/>
                <mxCell id="3" value="http://ics2o.mths.ca" style="swimlane;whiteSpace=wrap;html=1;" parent="1" vertex="1">
                    <mxGeometry x="10" y="40" width="790" height="520" as="geometry"/>
                </mxCell>
                <mxCell id="6" value="Enter 3 numbers into the spaces below:" style="text;html=1;align=center;verticalAlign=middle;resizable=0;points=[];autosize=1;strokeColor=none;fillColor=none;fontSize=18;" parent="3" vertex="1">
                    <mxGeometry x="10" y="100" width="340" height="40" as="geometry"/>
                </mxCell>
                <mxCell id="8" value="Submit" style="labelPosition=center;verticalLabelPosition=middle;align=center;html=1;shape=mxgraph.basic.shaded_button;dx=10;fillColor=#f0a30a;strokeColor=#BD7000;whiteSpace=wrap;fontSize=18;fontColor=#000000;" parent="3" vertex="1">
                    <mxGeometry x="26" y="323.5" width="100" height="60" as="geometry"/>
                </mxCell>
                <mxCell id="10" value="&lt;font style=&quot;font-size: 38px;&quot;&gt;Subtraction Program&lt;/font&gt;" style="text;html=1;align=center;verticalAlign=middle;resizable=0;points=[];autosize=1;strokeColor=#BD7000;fillColor=#f0a30a;fontColor=#000000;" parent="3" vertex="1">
                    <mxGeometry x="190" y="30" width="370" height="60" as="geometry"/>
                </mxCell>
                <mxCell id="13" value="" style="rounded=1;whiteSpace=wrap;html=1;fontSize=38;" parent="3" vertex="1">
                    <mxGeometry x="90" y="140" width="120" height="20" as="geometry"/>
                </mxCell>
                <mxCell id="12" value="" style="rounded=1;whiteSpace=wrap;html=1;fontSize=38;" parent="3" vertex="1">
                    <mxGeometry x="90" y="210" width="120" height="20" as="geometry"/>
                </mxCell>
                <mxCell id="11" value="" style="rounded=1;whiteSpace=wrap;html=1;fontSize=38;" parent="3" vertex="1">
                    <mxGeometry x="90" y="170" width="120" height="20" as="geometry"/>
                </mxCell>
                <mxCell id="16" value="Number 3" style="text;html=1;align=center;verticalAlign=middle;resizable=0;points=[];autosize=1;strokeColor=none;fillColor=none;" vertex="1" parent="3">
                    <mxGeometry x="10" y="205" width="80" height="30" as="geometry"/>
                </mxCell>
                <mxCell id="17" value="" style="shape=image;verticalLabelPosition=bottom;labelBackgroundColor=default;verticalAlign=top;aspect=fixed;imageAspect=0;image=data:image/png,iVBORw0KGgoAAAANSUhEUgAAATAAAACmCAMAAABqbSMrAAABnlBMVEX////x6QDsB4nEvwDtDg8OBQZTU1XEB1XBvQAAAADv5wDFwADtABDCvwDuB4z8+/AAAAXx7QDAB1BKSkzRpADAAEjx8ADDB1VISEr37wALAAXJxQHBAE3a1AEAABAAAAjgB3vk4qLk3gHz8tT29vbc1gPbB3XOB2TlB4G/AEX29d3u7cbSzQHIB138/O/i4JrT0GJjZGaDg4XWB27u37nt68Dc2ofW02vLyDrp57HPzE+8vL3JycpLVVP56O7a29vz1uDf3I7JxTPU0WimoBaGgRhIRRLwzwnvwRDwtw/tNhTuhBDNy0nwqwnRWINwcXNGR1nhmbCTk5WoqKmWPm7n5+jor8JjXhIuKg4gHA1SThGVjxa7tBR+eRUlIiJuahc8OREzMTHucQzuYg0kIA4bFxDx2wPungnuURTuahDukhDtRRTwuwbbf5/NQXafnEXOTXjrvc6IhUvNgpmaI1KVkkeGP1egnTJ2QlZnTVeuNXXLI4CVN1thYFFAQly1sDd0clDAHmxgT1fXb5VEV1KHPl+oSmyynKXkyYTbtlQBV9IVAAAWPklEQVR4nO2di1/bRrbHwQZbsvFLvn7INtgxxgZjE8AlQHgZQiAPggEXkia0SfMg2W4goem2SdO9uzeke3f/6ztn9JZGtmRLxrnx75O24eHR6KszZ86cOZr29fXUU0899dRTTz311FNPPfXUU0899dRTTz311FNPPfXU01erQCBw2V2wTuhmAlOcirxGQZOjk1hzSIuL6A/SFV5XkdaRrvGa53RjmtN10A7SAtIGFrWx2JnbgbuYEm+C1+SkdC9zi3Nz6nsRbwbfxY15uAPo/AZF+XxeJJ/PR9kgp9MJ/5BFjXYAV3HDK1wP3aPPyXfMzN2q++3TvSObRV3pADDt/X65ojowJgNdzUtuv03MHMy6I8BaGj9mvI6PF3zOK1NSpZJaw+gPrzGZsiR5PEno1lyngDW4D+2NlKQbMXIzHrn60R9BoVCoX61QiNV8z5gwsMkOAfN6mneo24WBdWCW/P8FrNgDZlgQHPm+EGAs60Hui23V+0jNZMfGPC024/lygLHs5v0HIyPfPXyUbQcZ63n08PnIyIP7m55WmvHguasDy8m2gbHHg3QwmEgkgsGRR6030785gluBZo5bIOaBeM33BQBjH6WDg7wSwYctN3Q/mBCbSX9vnhgGRtnPq11g7E0ai7/X4IMWW9qSNYLAPzZNLAvANroeGLsZpGeXl+s/iMTut+KA2Me4lUERWXDTbDMY2ELXA8uO0HVo5VAiZvpWwQ3yrQyKNpYume0JALve7cCQZcS5ZpYEYIkR821lv+NbqUsmZtZSxwDYdLcDG0vTs1wza+Kt0jfNmhi7SR+oW0mkk+aaGQZgN7ocGPsoSM9wzSxLtmHa77MP6BrXiminqBmTMyUAo651ObD+J8FB+hA3U5NuNV0yaWLJtNDKjNRK4oW5VkrOLwDYcDoxSP+41teXm5XudDD4yNytopmW0MpgcNhUKxjY1e4GxlIQstJ02PWD4k4fmgT2fZDQitnpNtmhhGtbwI5xjJ+gFTc6mPjOJLD7uBlVK2YNtVMJ17aAbQYHCTIdWGwRmzHp9TuVP+wGYE96wMy1Y4mFeTuUcLXAh2mAvTDZzH0yMHM+rMuAhXgp79SZJt7pVguzpFa0qawYl3Cd6gpgoWj/yfat17dvv761fdIfjUrUxkYShDsNmlwbofUCCVg6K+8D6YEpgPk6lD9sBiwUPXn99M6QqDvPXm57RGZE75N2mgTmJLUSfCC0EoqGTtATu4We1/ZJKEqGxiVcL9/Cott/GUCYBkRhaHe3uW4TvX7ieVanMV1iLwiGytlpCD2wl8/uDAjPa+DO09tEQ8PAOrKRW6T0gYU8T+WwZNRe3cbIsoQxaXbVTOaeSA+DbW3fxdatfGBPt6OaNrJcCQa1bjevOZ++hYVO7pBw8cig1wR/nUibNTAid4Q9FH39bIj0wBAyj9rIMDCvz0lN2+vH1imutIIELHQyoMcL9/oldPq5mphZlw/SmlhiJBvdfkY0b3zxgW0VMQwsmU1SlM/O6HWacuoDiz5rwAt6/SyEQrG00jiCW6ZxATHV7JFIH0df6uLCxE6UxDhgrCdJ2bgEL/ooKpnVG5Kh1415oV6/AuNQEAt+Z35AgjyK5VEiuNn0ab1S+jGcoYZ9gGHKtrTYnNdJJT0ePQuL3m0GbGDoaRSIyfYln4y1uPmd3aJF8MH0JtuEF7r2a4WJDQvAwNbscWRXUMPDwhY7CdjTpsAGhm6hUVnaSgeDiUHYsr7Z33qxwM0R3EoimH7iNfKw7ipMTALWj4YltWH9Iuka4jXW3y4wGBgse/z4QTo9snVzuK3airFHWyPp9PPHxyy7beDSf1EAwwlXPkcLjsxrcUQWuI7axO5GF1joZfNeDwzh2YpFgn+1gaufa4ZrKvrKALCnusDQV1a7/qkN5O45SPrADDzmgaHb+su7lmXsyj8pgOF02JjYApoDrIxhiyjAS/Jt6wIz4vXNATNqg83n5wHBtpXAZDM0mvypeat4TaLGxJ14fWD9Ht1AX+r2LcPAWA+1eVwywix02/SI1ADrz6IY4Lo1k+UiJRvtjYChodGk50MDRjOPbPbmCyjQ2TKQ5Qrdav6g1IErBqbojCfppBasIAbhhCxa8jRafG83sbGhewYNjC09p+nwbG2QDt408OvNTHtINSC5/KGzpLyNEkVZkINF4YRPbroNLAzSFQ0DSFgcGVMW8VpCV8+FaQOLzWZjUruU5IBRXuU6A02W3naJzQvhhHipBhaGFL2nvwIfemqUF/uQ44UUp4PNR2XjGHDo1Yn6wjwwua8BwTqpvYAMVtsKOFlvIwvrByN7OUDOsQzd06aldHgdi0UrfYc0/cTAR8iJOP662ueEx4lvnZJmf67zw5Svnd1dCFeTCjbDXN6tSU7/tirtCl/d+UmTk9IVu0Xz1SZ9ULZiJIcd1XtMd37qJ1wXpxB8fZMb6gE01k4IG9gRw1VeEBE3BQbIPK/vvhLzxEMDr+7eChk1L+h1gv5R7MUybaiCNer56Y4m1zr07F4/8boY2AZnEoroAq/FW3yLMgDhvbwtvEqd9BralwyFQtHQ9q3b9+693vZEow32b7RinWLdHVLuB9pYJVMoeuvuX6WndOevd1/rbYH0Z51Ches6GoQKRwYhbEtVPbAcUhSOQmi3Y2ojt9lel46g7q4udSRMG90aR3w8J+gp4Q0+T1SPVj+fP9zBzc85nar79LWUIZvyktvpwLtG7M0gvSz1ZIZOjzX/kKCmO5JYWVmFa9Grcv1gGaaJFX0EXrA87XZgxqQoCZ5aUPser+mFZVFjp4Iv7AQwNCSXpL646BY2lpoIAxOZ4NlN/mPTxEa9Tq0n5OaOTgA7Tgtl0qAf6RHLLzGmLAlGk6UyHjBJrKjhJc21nXhfcjgtxq1QWk6brOk0cgV1DfWOaoaDpbhhYqPInIblXjMri+Y68oLpE5rOCb2ZNbI2MqsSpS4Jvq4i1o+IGXzvQTMePfITMToBjH1ES4HYIP3CchfG4gy1Ij4NLBBszBAxsC/FrATjWXoYHbEw9jlNr3HXq9Fmy9KNtE+ooQ6o406wMQMvI2l4wedko70zwJDb/wGvJg9o2mS9naH2STXUU5TaUozY2Kj6U5BWk3u/zrwkz26mafpgecmFeFk+IFHzXlKtE8SeyouhtWATYkWNfSFeO/Lf4A76EE70gGM7pNM55J9rc3eI9T7AL6Kmv7fl2TiJNdSweaG8XLO5ckrt7yFg2VAkulVHyciPgIFjUrzi4SgCSzVJg2L7nY8ef7/ZailBE+H6Q21ydVGdzlL5I7UCC2peEFAo2zV6WJHyXCCvBLI0rDBL/Zti2fb3evWkA6xvHRFT/CL4Mf0NS3X0hidIdQKy7cO+FOcSyVFyx/KQR7i14vLspArXaUplMoBAL6M4r8YLDkyTGhrdaHR2mnUw0RBXkFQcZYR7x7bsJxucwbCh3PPhBhm55m5Rw2uYIgYigani6OTc4pWrV69dm78xfX1nYWMDH2JFWY3Sp8TIfU88VEo+6chBNleDIwVQmOD0qH+ZeCBIkVJHC+g3jVey43Me8bmIiOXilfVr2OrBRtDdqQ1IBqMdoYaUB4+pB7geykZnMBDthhRcLKiDEJghWt9BQQssvkGuw16nl5pGZgl2OT9/fWHD6yWft9Y+R4GmBFI85oyfdUpSwlWrG5QqsgIQ2jT/utrhA9iGecfVo9Pds7Oz3dOjVc3PDpff/JZ0Sg2ykE/RGnYADuwcncQ2eeXqOjfCYYj7vE6rB7ho0fxGju4ZDBA4KQ0SHL96htAOSE/jg0POL1KRVIpxMwz679v9qpxWvRaP7+29ke3Ewz6gic0YfIxrsTgqIzk/zYH0qjhSah6GLVA3hp+jnKrX0LPaQTlNGpD6BdmruxMptySAdnrOG9pSPOwC7b2Rrlpq8ERNi590FjmSQCop95UaoySzbBDCo9hCBaOkXkhNajxdlmrQYtUtxwWKuVOR2FsYnEtxF6+9n4USVnCydr3NuePkN+fBUw7Dyx2Ti+LwhoN1kQtTn6mLgen7ZzQoVTRQHKI8dmZavYhCBqY/Q55HBMuKIVLwh/8ykiq/c0kK/50/fcNr40sq8/JCryyxkjCAj2iG+Rvb5TUY3tcbzWdXNX4fOXS5iU1RTpXHzzbw+KsxnlEhn8lk8pWY3NR+WZERc+39DQ5Vg0nJtlftrshLSiAiteAEIqKJyV3KunbQUvrvxu1y4zHv8PsdDvQvf8FdFoH9qgDm2nO9yXqQc7HvvTHkTWQ+2mvNoWDIxFQjrqSYKBfkQLPwvJL6ycYqHpDlcaCF5a8w4+P5QoyB7793qbS39/Nvx0ZSl60KhddS75PWvJg8ii0oOyxRQ0NOWlIGfLIYzIPHb1J31l3bxWDGHQ45MGRnjkyhTACGFV9r/yb0tIEiPJmvscSYizwEGRavzDlOyX3cGIZLOckurO6KY5eV98uA5ZkM9xf/eEU1JAX3P0tszRJNy6tVx1ovvlEIO/WS7EkgelLUUJQDQ4M1iwJz4qy7NhN3fXCrDMzhyDAVgZ//dyIwlytHaM4aXZNXLGWRuVlRPn6d8nrYkjw4TVLS4VlTPgkY7KmNjaGVH6EVHGL9ij2YXw5snCmIwD6Sgdk4JpXTZNL7xnXQ/tNB0X4ym5RPJ3ILC3ilHwxz/48DUtJsGXjF/8ABhQKYn4lJX5MNLL6sbc8iwb4N72tYNvvm73uusKv9q0GlnU822D0+eYB3Xaxk9fjwqtdL4HWIQ/jlfRRUxCpKYAVGHKI6Y9JGYFNoUZSEdHa29I+f/5tblsXrzT/XRCiWp2QlX8rIVVoZoWG7OLo+R4oyZ6Evh33vtMDkTszhIAOzcZr8+bfNzY1//O2fKIKx8gEVr1yd2hG8GFpCKFIR83z1ik6uDLSGDCyMbhssTDUkHY6YW2Zin0nTpH1Ovx7fA4XtmGWEJA5ULynWwoEd9JPhMajs1wvw62FXGAz9COLWspKXP8NI04D/T62N2RhWHKpJ8Sa21PyjBnQVESkBF3WwEpimcMbXq5tTQCMSjysc6MccKmIF+aD8oCEWPtRrtm3NkoFZ9Yiu4Zwb5dM69cUdH+Wd1z9cBToB/83FNHEYqCwn9l5FzKLHTVKOiAtppvlnDWlxwUf55snLrUYJhRw8SPy3M3WkLxArO8Ro7NsVObKwfby4WMdOYJD/beVTErDTlCZyxSowsYqAzP/xvYBsZeU9c25Z5zU6II9Il6tm3zWNaQaNLPwXnD6Macakw5GPMbFCBvI9sBT/nz8+rHz+vPLhj5g7dWFft3RcmMv1/tS+ixrtWZxz3Tj5VdGamN9RiTEMUy4UCmX0F3c5j8DlcQLbvm7VdYCt/BJxH9l3WWM9430RHpPqeZJHlqkAKwaZWmUc5xcdDJokInaNydz+v3QW+5/cMXfkwr7or7mWw8JUzQUWBBPDzGA4Ovx+0f+DPab2benS6n4q5f6gY2Bg2akz7ZZpxwRenw+nLnCOmshLC7DCuO1xYquneO8qRuT1ntvLYsqXaGMHfKgvmJh6eaSjDADbtbw31d1IirTtwvH64B8v4MQwc3Z5xGAxyQUWvIllDBEDYMxbi/tyvptihL298sdPK2r7cuA8MB6V1j8rw6qJaZNVrreGLcxiYOdnnHWh6YQpZJC7VMTJK64/cMzjz+A1ScQe/2lEOKjmLHyf2zkywMuPgVn5mKtvJ8RNvQK3d+X/+O2nzytYnz/9KTgLnljq8hw/MrEw/9bU25ROMKYRBGKMhU7/KJLid45jBWkt5vd//P3bP//89vePjrK40OWCQDvD5iYCL8YHr6uc/9AuKTUWVoE+Wxd1X0SEYg5xHSZeCkueN/EX4FcnbFyZNRGsQ/g1Gl9f0ZSYvxyzMg47FXiVGeIsjaIYuaMYB2O0fMoxrkOXlC7fnzBmYzA/RKoWdWCf55WH7EiByEuxBPHngZhtC43mgo02IT3PDY5YE2Lg8y1bS1a5h8T5rjJTUA1KP2RMlFkBv9tiF2pWODnAx4JcUUpjG8MuzLIx8ZZBvksYi8hbxeShIFrIxhj1xM37/cuLXmFQhoVU0xlHrOFcGbPQhZ0rVxho/DGFcT9fQ+TIlBlCV8bhI5FLzFvgzSMhX87bWIN4DI/ICYsioV1VmsQ/Xoa8SB6K1MoxRojKlCZWiFkcB5pVPS7bJ92N4Nq6mN4qCecqLOtuSuszMwWGV7lCwCU8srJFPWhJB3Ji/DTPVMi8IFXhTlk0IM4nSPtVjvFMPp/POPx6jgGHuZeY5uEcv7gPxE/0TJk0HHAYZNnj3dfZTFAHsGpg4EWrFvWhNdXCMhs7dzOCkakj73H8A8uiIOKee3PBQ7tkYLkZObHVM97IYnkFMp6XdfmV1oD5uwAYR0zaW343IaSm8lJq2sFXV5ctcx+kIoUvw8IQMTwqZ4V48Jw3shgTq3D7bOMVrkbYyq6u4udC2N9rDuxynT7WLMRjM2LJxGlKeDeEiZVhl03IWFm5jMP7e2bHJLc2O2jeut06wPWIYhHA6q7weohcTNXKS/4LN2ksMy6Iy/D8snLpG+FcBOuKS4+uejahfgPpF0vr6OqfuHFPDlB1xEU2v67Eu8DG1sLg+l0Sk+puSkKWSp29X7GyDCXnWvnDNDG8+HfHwrYWjRrWYY0zMikXUN0/m5iIpCITE+V31aW4pXU7sKXATby6KzEtL+zBUhcHYVtfFTAu7MjCLjmWXPX86Ai/OykVF1hzLdTc/5Z1gmQdXuN4qZtaheq2uHVdaUPLLkiQxWsEe8fpWQsrD2egoq/Kj/myESPzZ2I44XrKbRFeZqGFTFyBVrymdu85dIMWVrXhUkPUXJWPWNDitbGV+aXN776uAobfpwFkM0vyHq2B6Vk5SQIwiA1Wz1LiumJcJ0WBvj2eLwtxIbiHmW4ZklhLLs7KXLU6T2gZp7ItLW3NCQabO5UivjIsLPiKIQdfOgSwCmXhrdcU5iXVT3aHcksurtQ0HA/P1GozYc7m2n8dQ64ZcVQJKzFhYVGp5OHd4Ewmn69UCmU3I64z3BGu4AnNsN0xS4rKLc3ElbWAVrzwo5BUPdTXt19Wx8g46+qOKb+ZcvO7CTVbK7lb1PLBTFyAhkzMglfKlMLVQ+Ksu38WYdwNlYqcnfJ9WJKqQrpKucP6LEz+rpnZZRu6V5NtWCFVL8qRlA40JhIpX1SF31yLW+4frFTOrkeJN6xq8tarR7sxJhVB3HhwTAq+ip1dnFel38JVRxYGOF+OYLmvdo251fOj/XcXb8/K5fLZ24t3+0fnVWXyC9dZ2/juTjeLS5DMmrn5ZRwlhm18+7CrhYmF4wdG7395llvsfq28hLVrGC0rmppZbq3uwrO2lEr/GpU74EIXFCHX13RB5A6XZ138L7q6LgDrsA4PwmEh2JuZrS8fKrAhVPWDGiw5+PC5/jWbF6/DurisCIfjccStVptFQosyF/oyLCw5wvHaUg8XpzVgpvciGwcyXKt/nbGEng6X0NCLa7CBzYVhqF6ubQUCxdFveI0WW3tH1QblDpfqszVYjoEgoK/NHizpTwadUCDwzb//818a/eff33QLtT5YjnG67H70jZJYyanZdLBhF+v/AKJKha5TQj8lAAAAAElFTkSuQmCC;" vertex="1" parent="3">
                    <mxGeometry x="450" y="110" width="304" height="166" as="geometry"/>
                </mxCell>
                <mxCell id="14" value="Number 1" style="text;html=1;align=center;verticalAlign=middle;resizable=0;points=[];autosize=1;strokeColor=none;fillColor=none;" vertex="1" parent="1">
                    <mxGeometry x="20" y="175" width="80" height="30" as="geometry"/>
                </mxCell>
                <mxCell id="15" value="Number 2" style="text;html=1;align=center;verticalAlign=middle;resizable=0;points=[];autosize=1;strokeColor=none;fillColor=none;" vertex="1" parent="1">
                    <mxGeometry x="20" y="208" width="80" height="30" as="geometry"/>
                </mxCell>
            </root>
        </mxGraphModel>
    </diagram>
</mxfile>